<?xml version="1.0" encoding="utf-8"?>
<!-- Generator: Adobe Illustrator 19.1.0, SVG Export Plug-In . SVG Version: 6.00 Build 0)  -->
<!DOCTYPE svg PUBLIC "-//W3C//DTD SVG 1.1//EN" "http://www.w3.org/Graphics/SVG/1.1/DTD/svg11.dtd">
<svg version="1.1" id="Layer_1" xmlns="http://www.w3.org/2000/svg" xmlns:xlink="http://www.w3.org/1999/xlink" x="0px" y="0px"
	 viewBox="0 0 1386.3 1385.9" enable-background="new 0 0 1386.3 1385.9" xml:space="preserve">
<g id="JnZVAE.tif">
	<g>
		<path d="M695.2,1386.4c-1.2,0-2.3,0-3.5,0c-0.8-0.1-1.6-0.4-2.4-0.4c-16.6-0.8-33.3-1.2-49.9-2.5c-15.5-1.2-31.1-2.9-46.5-5
			c-18.1-2.5-36-6-53.8-10.1c-56.4-12.9-110.2-32.5-161.6-59c-81.2-41.9-151.4-97.6-210.9-167c-37-43.2-68.1-90.2-93.5-141.1
			c-23-46.1-40.6-94.2-52.9-144.3c-8.1-33-13.7-66.3-16.7-100.1c-1.5-17-2.1-34.2-3.1-51.3c-0.2-3.9-0.4-7.8-0.6-11.7
			c0-0.7,0-1.4,0-2.1c0.1-0.8,0.4-1.6,0.4-2.3c0.3-7,0.6-14.1,0.8-21.1c0.5-16.7,1.8-33.3,3.5-49.8c2.4-22.3,5.9-44.5,10.4-66.4
			C28.1,489.6,49.3,430,78.9,373.4c45.8-87.6,107.5-162.1,184.9-223.6c63.5-50.5,133.8-88.6,210.7-114.3c28.8-9.7,58.2-17.3,88-23
			c21.7-4.2,43.5-7.3,65.5-9.4c12-1.1,24-1.8,36-2.3c29.3-1.4,58.5-0.8,87.7,1.7c15,1.3,29.9,3.3,44.8,5.3
			c18.9,2.5,37.6,6.3,56.1,10.7c53.6,12.7,105,31.5,154.1,56.5c90.6,46.3,167.5,109.3,230.6,189.1c51.1,64.6,89.5,136.1,115.1,214.3
			c10.3,31.4,18.3,63.3,23.8,95.8c2.7,16,4.7,32,6.5,48.1c1.4,12.7,1.8,25.6,2.7,38.4c0.2,3.2,0.5,6.4,0.7,9.6c0,15,0,30.1,0,45.1
			c-0.2,1.4-0.5,2.7-0.5,4.1c-0.2,5,0,10-0.4,14.9c-1.2,14.1-2.4,28.1-3.9,42.1c-2.3,21.5-6.1,42.8-10.7,63.9
			c-12.6,57.5-32.2,112.6-58.9,165.1c-34.9,68.7-80,129.9-135.2,183.6c-52.7,51.3-112.1,93.3-178.1,125.8
			c-77.9,38.3-160.1,61-246.6,68.4c-15.2,1.3-30.5,1.7-45.7,2.5C702.6,1386.1,698.9,1386.2,695.2,1386.4z M1228.7,693
			c0.2-293.8-238.6-535.1-535-535.2c-294.5-0.1-535.1,238.9-535.2,535c0,296.2,240.6,535.2,535,535.2
			C989.8,1228,1228.8,987,1228.7,693z"/>
		<path d="M376.1,821.1c-35.5,0-70.6,0-105.6,0c-0.7-2.6-0.9-358.7-0.2-363c35.1,0,70.2,0,105.8,0c0,12.1,0,24,0,36
			c0.2,0.1,0.4,0.1,0.7,0.2c0.8-0.9,1.7-1.8,2.5-2.7c16.1-18.6,35.7-31.7,59.5-38.2c17.4-4.8,35-5.9,52.9-4.8
			c10.5,0.6,20.9,2.1,31.1,4.7c19.4,5.1,35.8,15.4,49.7,29.6c2.5,2.5,4.9,5.2,7.4,7.7c5-4,9.7-7.8,14.5-11.5
			c16.2-12.5,34.1-21.7,54.1-26.4c17.2-4.1,34.7-5.3,52.4-4c15.2,1.2,29.9,4.3,43.9,10.6c13.4,6,25,14.3,34.7,25.4
			c9.2,10.6,14.7,22.9,17,36.6c0.7,3.9,1.2,7.9,2.4,12.1c0.6-1,1.2-2,1.8-3.1c9-15.9,20.2-30.2,33.8-42.4
			c20.3-18.1,43.9-29.8,70.1-36.3c21-5.2,42.4-7,64-6.2c25.3,1,49.8,6,72.8,16.7c33.2,15.5,57.9,39.7,74.7,72.2
			c9.9,19.2,16.1,39.6,20,60.7c3.5,19,5.1,38.3,5.7,57.6c0.1,2.5,0,5.1,0,7.9c-0.6,0.1-1.3,0.3-2.1,0.4c-1.2,0.1-2.3,0-3.5,0
			c-83,0-166,0-249,0c-1.6,0-3.2,0-5,0c-0.1,1.5-0.2,2.7-0.2,3.8c0.5,15.8,3.5,31,11,45.1c12.3,23.2,31.5,36.7,57.5,40.4
			c17.5,2.5,34.6,1,51.2-5.2c16.3-6.1,29.2-16.8,39.1-31c5.1-7.3,9.3-15.2,13.9-22.8c0.7-1.2,1.3-2.4,2.1-4.1
			c27,13.6,53.8,27.3,80.7,41c-0.2,0.6-0.3,1.1-0.5,1.4c-10.7,16.1-21.9,31.8-35.4,45.8c-23.5,24.2-51.5,40.8-83.8,50.4
			c-18.5,5.5-37.4,8.3-56.7,8.6c-31.6,0.6-62.2-4.3-91.1-17.6c-28.4-13-51.1-32.6-68.1-58.9c-0.4-0.6-0.8-1.2-1.2-1.7
			c-0.1-0.2-0.3-0.2-0.9-0.7c0,21.9,0,43.6,0,65.4c-35.6,0-70.7,0-106.3,0c0-1.6,0-3,0-4.5c0-62.3,0-124.5,0-186.8
			c0-11.8-0.2-23.6-0.7-35.4c-0.4-7.5-1.2-15-2.7-22.4c-4-19.6-19.1-33.1-38.9-35.8c-10.2-1.4-20.1-0.5-29.7,3.1
			c-17.6,6.6-28,19.4-31.4,37.9c-1.5,8.2-2.1,16.5-2.1,24.9c-0.1,25.9-0.1,51.9-0.1,77.8c0,45.5,0,91,0,136.5c0,1.5,0,3,0,4.4
			c-2.8,0.8-100.3,1-106.2,0.3c0-1.4,0-2.8,0-4.3c0-67.6,0-135.2,0-202.8c0-8.1-0.2-16.2-0.6-24.3c-0.3-7.2-1.5-14.2-3.4-21.2
			c-3.5-13.1-11.7-22.1-23.9-27.6c-13.1-5.9-26.5-7-40.3-2.9c-17.2,5.1-27.8,16.8-33.1,33.6c-3.5,10.9-4.3,22.2-4.4,33.6
			c-0.1,33.1-0.1,66.2-0.1,99.3c0,37.3,0,74.5,0,111.8C376.1,817.7,376.1,819.2,376.1,821.1z M1031,593.8c-1.3-11.7-3.4-22.8-8-33.2
			c-4.9-10.9-12.1-20-22.3-26.3c-16.7-10.4-34.9-14.3-54.2-10.9c-26.5,4.7-45.2,20-56.1,44.7c-3.4,7.6-5.3,15.8-7,23.9
			c-0.1,0.6-0.1,1.2-0.2,1.9C932.6,593.8,981.6,593.8,1031,593.8z"/>
		<path d="M694.9,1115.1c-75-0.7-140.6-23.7-197.9-70.1c-8.3-6.8-16.4-14-23.9-21.7c-15-15.6-19.4-34.3-13.1-54.8
			c6.3-20.3,20.6-33.1,41.4-37.4c19.2-3.9,36.2,1.3,50.3,15.2c22.1,21.8,47.7,38,77.1,48c14.4,4.9,29.1,8,44.2,9.6
			c14.8,1.6,29.6,1.5,44.3-0.3c45.7-5.6,85.1-24.6,118-57c9.1-9,19.9-14.8,32.6-16.3c30.8-3.6,55.1,16.7,60.7,42.3
			c4.3,19.8-0.8,37.2-15.1,51.5c-42.5,42.4-93.1,70.2-151.7,83.4c-15.1,3.4-30.4,5.7-45.9,6.5C708.4,1114.6,701,1114.9,694.9,1115.1
			z"/>
	</g>
</g>
</svg>
