<?xml version="1.0" encoding="UTF-8" standalone="no"?>
<!-- Created with Inkscape (http://www.inkscape.org/) -->

<svg
   xmlns:dc="http://purl.org/dc/elements/1.1/"
   xmlns:cc="http://creativecommons.org/ns#"
   xmlns:rdf="http://www.w3.org/1999/02/22-rdf-syntax-ns#"
   xmlns:svg="http://www.w3.org/2000/svg"
   xmlns="http://www.w3.org/2000/svg"
   xmlns:sodipodi="http://sodipodi.sourceforge.net/DTD/sodipodi-0.dtd"
   xmlns:inkscape="http://www.inkscape.org/namespaces/inkscape"
   id="svg2"
   version="1.1"
   inkscape:version="0.91 r13725"
   xml:space="preserve"
   width="1789"
   height="200"
   viewBox="0 0 744.09497 1052.3625"
   sodipodi:docname="ING_Direct_Australia_Logo2.svg"><metadata
     id="metadata8"><rdf:RDF><cc:Work
         rdf:about=""><dc:format>image/svg+xml</dc:format><dc:type
           rdf:resource="http://purl.org/dc/dcmitype/StillImage" /><dc:title></dc:title></cc:Work></rdf:RDF></metadata><defs
     id="defs6"><clipPath
       clipPathUnits="userSpaceOnUse"
       id="clipPath20"><path
         d="m 306.141,454.961 260.788,0 0,151.654 -260.788,0 0,-151.654 z"
         id="path22"
         inkscape:connector-curvature="0" /></clipPath><clipPath
       clipPathUnits="userSpaceOnUse"
       id="clipPath660"><path
         d="m 0,841.89 0,-152.692 595.275,39.777 0,112.915 -595.275,0 z"
         id="path662"
         inkscape:connector-curvature="0" /></clipPath><clipPath
       clipPathUnits="userSpaceOnUse"
       id="clipPath682"><path
         d="m 28.346,786.285 194.702,0 0,55.605 -194.702,0 0,-55.605 z"
         id="path684"
         inkscape:connector-curvature="0" /></clipPath><clipPath
       clipPathUnits="userSpaceOnUse"
       id="clipPath802"><path
         d="m 0,0 595.276,0 0,841.89 L 0,841.89 0,0 Z"
         id="path804"
         inkscape:connector-curvature="0" /></clipPath><clipPath
       clipPathUnits="userSpaceOnUse"
       id="clipPath810"><path
         d="m 27.3464,34.0984 115.3856,0 0,-3 -115.3856,0 0,3 z"
         id="path812"
         inkscape:connector-curvature="0" /></clipPath><clipPath
       clipPathUnits="userSpaceOnUse"
       id="clipPath826"><path
         d="m 208.797,617.527 67.749,0 0,67.748 -67.749,0 0,-67.748 z"
         id="path828"
         inkscape:connector-curvature="0" /></clipPath><clipPath
       clipPathUnits="userSpaceOnUse"
       id="clipPath842"><path
         d="m 278.663,617.527 67.748,0 0,67.748 -67.748,0 0,-67.748 z"
         id="path844"
         inkscape:connector-curvature="0" /></clipPath><clipPath
       clipPathUnits="userSpaceOnUse"
       id="clipPath910"><path
         d="m 348.527,617.527 67.75,0 0,67.748 -67.75,0 0,-67.748 z"
         id="path912"
         inkscape:connector-curvature="0" /></clipPath><clipPath
       clipPathUnits="userSpaceOnUse"
       id="clipPath1038"><path
         d="m 418.392,617.527 67.749,0 0,67.748 -67.749,0 0,-67.748 z"
         id="path1040"
         inkscape:connector-curvature="0" /></clipPath><clipPath
       clipPathUnits="userSpaceOnUse"
       id="clipPath1172"><path
         d="m 138.932,617.528 67.749,0 0,67.747 -67.749,0 0,-67.747 z"
         id="path1174"
         inkscape:connector-curvature="0" /></clipPath><clipPath
       clipPathUnits="userSpaceOnUse"
       id="clipPath1244"><path
         d="m 25.961,619.142 109.435,0 0,64.572 -109.435,0 0,-64.572 z"
         id="path1246"
         inkscape:connector-curvature="0" /></clipPath></defs><sodipodi:namedview
     pagecolor="#ffffff"
     bordercolor="#666666"
     borderopacity="1"
     objecttolerance="10"
     gridtolerance="10"
     guidetolerance="10"
     inkscape:pageopacity="0"
     inkscape:pageshadow="2"
     inkscape:window-width="1536"
     inkscape:window-height="803"
     id="namedview4"
     showgrid="false"
     inkscape:zoom="0.25"
     inkscape:cx="-13.609637"
     inkscape:cy="112.65936"
     inkscape:window-x="-8"
     inkscape:window-y="-8"
     inkscape:window-maximized="1"
     inkscape:current-layer="g10"
     inkscape:snap-bbox="true"
     inkscape:snap-page="false"
     showguides="false"
     inkscape:snap-center="false"
     inkscape:snap-object-midpoints="false"
     inkscape:snap-bbox-midpoints="false"
     inkscape:snap-bbox-edge-midpoints="false"
     inkscape:bbox-nodes="false"
     inkscape:bbox-paths="true" /><g
     id="g10"
     inkscape:groupmode="layer"
     inkscape:label="ING DIRECT"
     transform="matrix(1.25,0,0,-1.25,0,1052.3625)"><g
       id="g678"
       transform="matrix(47.267713,0,0,47.272806,-5572.1128,-38587.072)"
       inkscape:export-xdpi="90"
       inkscape:export-ydpi="90"><g
         id="g680"
         clip-path="url(#clipPath682)"
         transform="matrix(0.99607748,0,0,0.99479308,-1.3310106,5.2038427)"><g
           id="g686"
           transform="translate(113.2815,828.9504)"><path
             d="M 0,0 -0.818,1.672 -0.991,1.805 -1.478,1.926 -3.042,1.424 -3.118,0.513 -3.063,0.398 c 0,0 0.134,-0.237 0.249,-0.338 0.112,-0.11 1.17,-0.445 1.17,-0.445"
             style="fill:#ffffff;fill-opacity:1;fill-rule:nonzero;stroke:none"
             id="path688"
             inkscape:connector-curvature="0" /></g><g
           id="g692"
           transform="translate(46.0324,815.643)"><path
             d="m 0,0 0,0.53 c 1.159,0 1.982,0.094 1.982,1.777 l 0,8.831 c 0,1.739 -0.629,1.784 -1.982,1.784 l 0,0.507 6.809,0 0,-0.507 c -1.399,0 -1.976,-0.045 -1.976,-1.784 l 0,-8.831 C 4.833,0.624 5.56,0.53 6.809,0.53 L 6.809,0 0,0 Z m 23.4,10.193 0,-10.294 -0.796,0 -10.299,10.636 C 12.356,10.244 12.356,10 12.356,9.714 l 0,-6.486 c 0,-1.973 0,-2.698 1.812,-2.698 l 0,-0.53 -4.835,0 0,0.53 c 1.832,0 1.832,0.865 1.832,2.698 l 0,7.392 c 0,1.098 0,2.302 -1.928,2.302 l 0,0.507 4.559,0 8.469,-8.697 c -0.047,0.245 -0.047,0.387 -0.047,0.727 l 0,4.734 c 0,1.912 0.047,2.729 -1.77,2.729 l 0,0.507 4.83,0 0,-0.507 c -1.784,0 -1.878,-0.77 -1.878,-2.729 m 16.721,-5.654 0,-3.429 c -1.929,-0.969 -3.746,-1.448 -5.555,-1.448 -5.029,0 -8.051,2.939 -8.051,6.69 0,4.036 3.461,7.368 7.856,7.368 1.088,0 1.913,-0.193 2.772,-0.474 0.619,-0.197 1.001,-0.413 1.385,-0.413 0.342,0 0.434,0.561 0.48,0.887 l 0.483,0 0.434,-4.637 -0.578,0 c -0.24,0.917 -0.673,1.673 -1.253,2.201 -0.905,0.917 -2.152,1.404 -3.577,1.404 -3.022,0 -4.785,-2.397 -4.785,-5.998 0,-3.553 2.155,-5.963 5.024,-5.963 0.847,0 1.619,0.189 2.568,0.626 l 0,3.527 c 0,1.13 -0.181,1.568 -1.817,1.568 l 0,0.531 6.073,0 0,-0.531 c -1.507,0 -1.459,-0.484 -1.459,-1.909"
             style="fill:#000066;fill-opacity:1;fill-rule:nonzero;stroke:none"
             id="path694"
             inkscape:connector-curvature="0" /></g><g
           id="g696"
           transform="translate(97.8588,826.7324)"><path
             d="m 0,0 c -0.097,0.195 -0.34,0 -0.579,0.097 0,-0.097 0,-0.19 0.144,-0.292 C -0.288,-0.048 -0.049,0 0,0 m 0.385,2.541 c 0,0.09 -0.097,0.188 -0.238,0.288 l -1.161,0 c 0,-0.198 0.142,-0.288 0.289,-0.288 0,-0.199 0.146,-0.236 0.193,-0.288 0.148,-0.097 0.192,-0.097 0.34,0 0.143,-0.097 0.192,0.089 0.244,0 0,-0.294 0,-0.42 -0.052,-0.655 -0.049,-0.338 -0.34,-0.292 -0.579,-0.437 0,-0.144 -0.146,-0.388 0,-0.532 0.144,0.096 0.239,0.144 0.482,0.243 0,0.145 0.149,0.289 0.338,0.388 0,0.433 0.144,0.847 0.144,1.281 M 2.562,-0.237 2.562,0 2.077,0 2.034,-0.048 2.562,-0.237 Z m -2.85,4.412 C -0.34,4.647 -0.872,4.691 -1.112,4.882 l -0.195,0 C -1.687,4.743 -1.769,4.354 -1.812,4.036 -1.687,3.603 -1.404,3.89 -1.211,3.603 c 0.197,0.143 0.679,0.484 0.923,0.572 M 0.772,3.65 C 0.68,3.746 0.385,3.603 0.241,3.552 0.052,3.505 -0.097,3.358 -0.097,3.214 l 0.533,0 C 0.483,3.358 0.68,3.552 0.772,3.65 m 2.38,-1.019 c 0,0 0.095,0 0,0.052 L 2.125,2.829 C 2.034,2.683 1.794,2.683 1.794,2.541 l -0.101,0 C 1.794,2.156 1.794,1.743 1.794,1.306 1.984,1.26 2.175,1.161 2.175,0.872 2.37,0.773 2.562,0.725 2.75,0.579 2.838,0.629 2.881,0.773 2.924,0.919 2.75,1.161 2.319,1.017 2.319,1.452 L 2.034,1.549 c 0,0.284 0,0.558 -0.05,0.756 l 0.05,0.037 c 0,-0.037 0.043,-0.089 0.141,-0.186 0.195,0 0.387,-0.049 0.575,0.097 0.088,0.052 0.088,0.288 0.174,0.288 0.087,0 0.179,0 0.228,0.09 M 2.417,3.214 c 0,0.144 -0.047,0.144 -0.098,0.144 -0.242,0 -0.242,0.388 -0.434,0.292 -0.091,0 -0.192,0.096 -0.336,0 0,-0.047 0,-0.047 0.095,-0.047 0.241,0 0.15,-0.339 0.34,-0.389 l 0.433,0 z M 4.023,3.505 C 4.114,3.746 4.114,4.175 3.921,4.404 3.826,4.596 3.585,4.691 3.347,4.882 L 3.011,4.691 C 2.838,4.596 2.75,4.404 2.75,4.175 3.056,4.036 3.392,3.65 3.535,3.358 l 0.146,0 c 0.145,0.147 0.24,0 0.342,0.147 M -5.889,-9.834 c -0.05,0 -0.192,0.144 -0.339,0.144 -0.137,-0.29 0,-0.482 0,-0.822 0,-0.147 -0.049,-0.291 -0.049,-0.291 -0.088,0 -0.259,0.196 -0.304,0.387 l 0,0.775 0.403,0.52 c 0.289,-0.181 0.386,-0.472 0.289,-0.713 m 1.237,0.532 c 0,-0.194 -0.042,-0.388 -0.14,-0.532 -0.049,0.193 -0.187,0.433 -0.421,0.433 -0.195,-0.383 -0.241,-0.529 -0.045,-1.111 -0.15,-0.147 -0.245,-0.193 -0.432,-0.291 -0.102,0.196 -0.102,0.531 -0.102,0.725 0,0.341 0.05,0.677 0.147,0.957 0.142,0.147 0.237,0.389 0.387,0.495 l 0.51,0 c -0.231,0 -0.231,-0.205 -0.231,-0.348 0.138,-0.049 0.327,-0.097 0.327,-0.328 m 1.696,-0.291 c 0,-0.387 -0.632,-0.919 -0.632,-0.919 0,0.24 0.149,0.532 0.149,0.822 0,0 -0.192,0.194 -0.39,0.194 -0.143,-0.097 -0.143,-0.194 -0.192,-0.338 -0.146,-0.292 -0.435,-0.582 -0.482,-0.871 -0.047,0 -0.047,0.046 -0.047,0.046 0,0.487 0.047,1.306 0.336,1.636 0.242,0.291 0.436,0.291 0.723,0.34 l 0.247,-0.049 -0.195,-0.291 c 0.195,-0.098 0.483,-0.279 0.483,-0.57 m 1.315,0.472 -0.128,-0.472 -0.319,0.861 c -0.388,0.341 -0.821,0.391 -1.064,0.586 -0.193,0.049 -0.193,-0.096 -0.287,0 0,0.094 0,0.246 0.145,0.386 l 0.287,0 0.292,-0.14 c 0.145,-0.152 0.483,-0.152 0.483,-0.441 0,-0.05 -0.045,-0.093 0.097,-0.285 l 0.448,-0.106 0.046,-0.389 z m 0.721,0.687 -0.338,-0.298 c -0.097,0.106 0,0.341 -0.146,0.49 0,0.096 0.097,0.145 0.049,0.19 -0.049,0.1 -0.591,0.292 -0.591,0.292 -0.189,0.145 -0.431,0.296 -0.624,0.483 -0.192,0.047 -0.339,-0.048 -0.582,-0.095 l 0,0.095 c 0.097,0.198 0.097,0.439 0.39,0.439 0.142,0 0.337,0 0.429,-0.146 0.198,0 0.292,-0.193 0.431,-0.246 0.215,-0.234 0.406,-0.333 0.547,-0.43 0,-0.148 0.048,-0.24 0.144,-0.292 0.291,0 0.197,-0.29 0.291,-0.482 m 0.241,1.498 c 0,-0.143 -0.046,-0.724 -0.046,-0.724 -0.095,0.335 -0.339,0.676 -0.63,0.676 -0.141,0.146 -0.286,0.29 -0.332,0.434 -0.125,0.145 -0.259,0 -0.448,0.145 -0.198,0 -0.435,0 -0.627,-0.145 l 0,0.145 0.337,0.391 c 0.337,-0.052 0.738,0 0.829,-0.244 0.241,-0.147 0.484,-0.292 0.532,-0.387 l 0,-0.149 c 0.095,-0.044 0.291,-0.092 0.385,-0.142 m -0.241,2.442 -0.192,-0.707 c -0.243,-0.186 -0.575,-0.095 -0.834,-0.095 0.35,0.095 0.639,0.513 0.834,0.802 0.048,0.05 0.098,0 0.192,0 m -0.676,0.577 c 0,-0.193 -0.091,-0.434 -0.306,-0.676 -0.044,-0.047 -0.186,-0.142 -0.186,-0.142 0,0.291 0.142,0.529 0.142,0.772 0.134,0.046 0.259,0.144 0.35,0.046 m -0.539,0.733 c -0.242,-0.247 -0.485,-0.343 -0.58,-0.635 0,0.145 -0.047,0.292 -0.094,0.388 0.047,0.196 0.189,0.289 0.239,0.332 0.145,-0.043 0.237,-0.043 0.435,-0.085 M 1.354,-6.838 C 1.158,-6.984 1.014,-6.984 0.772,-6.936 l -0.289,0.386 0.727,0 0.144,-0.288 z M 0.385,-4.64 c -0.144,-0.288 -0.284,-0.561 -0.577,-0.656 -0.148,0 -0.387,-0.091 -0.68,0 0.147,0.095 0.293,0.141 0.488,0.269 L 0,-4.64 l 0.385,0 z M 4.793,-9.69 4.647,-9.834 c -0.144,0.144 -0.049,0.532 -0.289,0.579 -0.244,0 -0.437,0.232 -0.532,0.281 l 0.197,0.097 c 0,0 0.091,0.046 0.194,0 0.095,-0.097 0.191,-0.146 0.191,-0.244 0.095,-0.134 0.239,0 0.343,-0.134 0.042,-0.146 0.093,-0.338 0.042,-0.435 M 1.257,-5.027 C 1.21,-5.296 1.061,-5.387 0.822,-5.729 0.68,-5.824 0.385,-5.875 0.101,-6.014 c 0.046,0.139 0.187,0.19 0.284,0.337 0.098,0.144 0.295,0.381 0.341,0.522 0.241,0.128 0.335,0.128 0.531,0.128 m -2.321,1.691 c -0.291,0.101 -0.623,0.388 -0.748,0.605 -0.09,0.194 -0.134,0.438 -0.134,0.58 0.177,0 0.305,-0.142 0.35,-0.24 l 0,-0.05 c 0.241,-0.29 0.484,-0.507 0.532,-0.895 m 3.722,-3.458 -0.096,0 c -0.046,0 -0.387,0.149 -0.485,0.244 -0.043,0.145 -0.043,0.292 -0.043,0.292 l 0.383,0 0.241,-0.536 z m 3.81,-2.229 C 6.42,-9.121 6.321,-9.401 6.275,-9.593 6.174,-9.302 6.083,-8.877 5.743,-8.877 5.695,-8.683 5.644,-8.626 5.45,-8.486 l -0.368,0.052 c 0.049,-0.192 0.322,-0.192 0.14,-0.443 0.182,-0.146 0.33,-0.146 0.422,-0.378 0.099,-0.146 0,-0.338 0.051,-0.435 L 5.404,-9.834 c 0,0.241 0.046,0.713 -0.273,0.811 -0.287,-0.098 -0.338,0.291 -0.533,0.397 -0.095,0 -0.095,0.235 -0.24,0.14 -0.244,-0.14 -0.532,0 -0.773,-0.14 l 0.241,0.384 c 0.197,0.145 0.391,0.096 0.582,0.145 l 0.385,0.045 c 0.387,0 0.712,-0.19 1.096,-0.339 0.194,-0.095 0.285,-0.235 0.285,-0.44 0.101,-0.046 0.294,-0.046 0.294,-0.192 m -6.903,6.436 -0.144,-0.597 c -0.146,0.288 -0.293,0.549 -0.341,0.891 l 0.485,-0.294 z m 0.918,-1.376 c -0.288,0.289 -0.532,0.532 -0.532,0.821 0.15,0 0.29,0 0.434,-0.093 0,-0.243 0.098,-0.439 0.098,-0.728 m 5.5,-4.089 C 5.79,-7.9 5.505,-7.9 5.404,-7.66 5.222,-7.615 5.082,-7.615 4.844,-7.615 4.647,-7.66 4.408,-7.66 4.217,-7.66 c -0.051,0 0,0.045 -0.103,0.097 C 3.826,-7.66 3.535,-7.66 3.247,-7.952 l 0.24,0.58 c 0.194,0 0.339,0.095 0.434,0.095 0.193,0.047 0.341,0.047 0.487,0.047 l 0,-0.047 c 0.531,0 1.144,0.047 1.532,-0.383 l 0.043,-0.392 z m -2.88,2.756 C 3.011,-5.387 2.75,-5.488 2.562,-5.488 2.271,-5.249 2.077,-4.979 1.794,-4.593 L 2.562,-4.735 C 2.704,-4.836 2.97,-5.155 3.103,-5.296 M 1.502,-3.184 C 1.502,-3.527 1.45,-3.963 1.11,-4.11 l -0.096,0.487 c 0.144,0.096 0.291,0.192 0.488,0.439 m 4.387,-3.895 c -0.245,0 -0.439,0 -0.581,0.241 -0.047,0 -0.128,0.144 -0.177,0.044 -0.239,-0.19 -0.484,0.149 -0.773,0.1 -0.141,-0.144 -0.289,-0.242 -0.532,-0.29 l 0,0.048 c 0,0.142 0.095,0.291 0.288,0.386 0.294,-0.095 0.533,0.536 0.825,0.193 0.143,-0.048 0.283,-0.048 0.369,-0.048 0.336,-0.145 0.435,-0.433 0.581,-0.674 m 1.112,-1.798 -0.048,0 C 6.851,-8.732 6.805,-8.626 6.71,-8.626 6.851,-8.097 6.562,-7.66 6.468,-7.23 l 0,0.151 c 0.147,-0.246 0.533,-0.484 0.485,-0.729 0.048,-0.434 0.048,-0.818 0.048,-1.069 m -4.439,4.914 c -0.243,0.144 -0.677,0.193 -0.578,0.485 0.093,0.243 0.241,0.294 0.335,0.379 0.051,-0.332 0.098,-0.575 0.243,-0.864 M -2.377,2.253 -2.62,1.959 C -2.57,1.498 -2.762,1.161 -2.762,0.725 l -0.245,0.773 c 0.051,0.195 0.098,0.373 0.245,0.609 l 0.385,0.146 z m 7.17,-7.28 -0.146,0 c -0.533,-0.174 -0.966,0.147 -1.4,0.434 0.24,0.099 0.579,0.149 0.867,0.149 L 4.262,-4.735 C 4.408,-4.783 4.647,-4.928 4.793,-5.027 M 2.319,-1.134 C 2.271,-1.425 2.175,-1.86 1.885,-2.057 c 0,0.197 -0.091,0.292 -0.192,0.436 -0.049,0 0,-0.144 -0.049,-0.144 0,-0.095 -0.095,-0.292 -0.095,-0.483 C 1.45,-2.293 1.257,-2.391 1.061,-2.293 l 0,0.142 C 1.014,-2.057 1.014,-1.86 1.014,-1.765 l -0.047,0.05 C 0.822,-1.765 0.822,-1.86 0.822,-1.96 0.772,-2.057 0.68,-2.151 0.68,-2.293 c -0.197,0 -0.295,0.045 -0.439,0.142 l 0,0.436 c 0,0.094 0,0.094 -0.046,0.094 L -0.049,-1.86 c -0.193,0.145 -0.239,0.532 -0.239,0.77 0.771,0.438 1.738,0.293 2.322,0.051 C 2.125,-1.09 2.225,-1.09 2.319,-1.134 M 3.681,-3.77 c -0.194,-0.049 -0.529,-0.147 -0.625,0.096 -0.261,0.439 -0.132,0.823 0,1.137 C 3.152,-2.815 3.2,-3.099 3.247,-3.336 3.296,-3.527 3.585,-3.623 3.681,-3.77 m -6.157,6.695 -0.333,-0.096 0.047,0.243 c 0.094,0.142 0.142,0.286 0.286,0.433 l 0,-0.58 z m 8.073,-7.419 c -0.193,0 -0.515,0 -0.705,0.143 -0.294,0.145 -0.389,0.241 -0.534,0.388 0.196,0.144 0.435,0.144 0.534,0.193 0.19,-0.193 0.369,-0.531 0.705,-0.724 m -1.335,1.352 c -0.239,-0.042 -0.436,0.194 -0.677,0.291 -0.098,0.264 -0.098,0.558 -0.193,0.7 0.193,-0.142 0.631,-0.142 0.529,-0.58 0,-0.12 0.193,-0.217 0.341,-0.411 M 8.217,-6.55 c 0,-0.288 -0.191,-0.529 -0.24,-0.822 0,0.293 -0.049,0.534 -0.237,0.727 0,0.095 0.136,0.095 0.045,0.24 0,0 -0.27,0.147 -0.27,0.339 0,0.191 0.178,0.337 0.27,0.481 0,0.052 0.192,-0.092 0.192,-0.385 0,-0.044 0,-0.193 -0.049,-0.288 C 7.876,-6.405 8.217,-6.405 8.217,-6.55 M 9.33,-7.079 c 0,-0.246 -0.291,-0.536 -0.387,-0.729 0.096,0.245 0.096,0.729 0,0.729 -0.1,0.044 -0.295,0 -0.295,0.095 0,0.146 0.054,0.339 0.054,0.434 0,0.193 -0.151,0.292 -0.151,0.387 0,0.288 0.343,0.339 0.44,0.532 0.048,-0.193 0.048,-0.383 0.048,-0.627 0,-0.099 0.144,-0.387 0,-0.628 0,-0.149 0.291,-0.05 0.291,-0.193 m -3.926,4.492 c -0.273,0 -0.611,-0.144 -0.757,0.146 0.104,0.05 0.197,0.193 0.292,0.29 L 5.404,-2.587 Z M 6.758,-3.674 6.517,-3.77 c -0.534,0 -0.774,0.147 -1.012,0.339 0.19,0 0.435,0.247 0.435,0.247 0.234,-0.247 0.577,-0.439 0.818,-0.49 m -1.965,3.022 c -0.576,0.32 -1.208,0.559 -1.912,0.604 0,-0.147 0,-0.284 -0.043,-0.332 0.554,-0.272 1.083,-0.514 1.57,-0.948 l 0,-0.437 C 3.921,-1.283 3.392,-0.797 2.795,-0.652 2.75,-0.75 2.562,-0.844 2.516,-1.039 2.175,-0.797 1.794,-0.554 1.403,-0.507 1.257,-0.507 1.158,0 1.158,0 1.403,0.097 1.549,0.244 1.644,0.487 l 0.193,0 c 0.147,0 0.147,0.092 0.147,0.238 0,0.292 -0.63,0.292 -0.923,0.292 -0.335,0 -0.578,0 -0.773,-0.145 -0.093,0 -0.047,-0.147 -0.047,-0.243 0,-0.05 0.144,-0.142 0.144,-0.142 0.098,0 0.195,0.092 0.295,0.092 C 0.629,0.289 0.726,0.145 1.014,0 L 0.967,-0.47 c -0.582,0 -0.967,-0.229 -1.402,-0.424 -0.144,0.097 -0.244,0.242 -0.338,0.387 -0.582,-0.192 -1.56,-0.966 -1.56,-0.966 l 0,0.339 c 0.431,0.384 0.978,0.58 1.413,0.802 l 0,0.332 c -0.192,0.097 -0.387,0 -0.576,0 -0.406,-0.048 -0.837,-0.237 -1.124,-0.47 0,0.138 -0.048,0.326 -0.048,0.326 0.533,0.289 1.172,0.53 1.796,0.433 l 0,0.198 C -0.92,0.579 -0.92,0.725 -1.014,0.725 -1.307,1.017 -1.596,1.452 -1.596,1.743 l 0.192,0.09 c -0.092,0.274 -0.192,0.996 0,1.239 -0.283,0.142 -0.542,0.387 -0.637,0.578 -0.094,0.24 -0.191,0.386 -0.236,0.654 0.142,0.292 0.236,0.387 0.375,0.673 0.09,0 0.215,0.05 0.261,0.147 0.237,0.047 0.383,0.286 0.672,0.143 0.196,0 0.39,-0.096 0.534,-0.143 0,-0.097 0,-0.147 0.095,-0.242 0.291,0 0.291,-0.286 0.441,-0.528 0.14,-0.05 0.284,-0.05 0.382,-0.05 C 0.772,4.217 1.014,4.217 1.11,4.087 1.502,4.304 1.885,4.354 2.319,4.304 2.37,4.453 2.463,4.647 2.516,4.882 c 0.046,-0.139 0.046,0 0.142,0 0.18,0.145 0.398,0.385 0.734,0.289 C 3.585,5.027 3.921,5.124 4.114,4.882 4.262,4.691 4.358,4.404 4.503,4.175 4.358,3.89 4.503,3.505 4.217,3.358 L 3.921,3.072 C 3.826,3.072 3.826,2.971 3.681,2.971 3.826,2.631 3.729,2.156 3.585,1.833 3.681,1.871 3.826,1.871 3.826,2.01 c 0.051,-0.051 0,-0.139 0,-0.177 l 0,-0.14 C 3.826,1.452 3.681,1.209 3.487,1.017 3.392,0.725 3.152,0.339 2.838,0.289 l 0,-0.094 C 3.535,0.195 4.114,0 4.793,-0.332 l 0,-0.32 z m 3.711,-4.644 c 0,-0.091 -0.141,-0.192 -0.192,-0.192 0,0 -0.242,0.239 -0.286,0.461 -0.049,0.191 0.142,0.533 0.142,0.533 0.049,0 0.099,-0.099 0.144,-0.099 0.051,-0.047 0,-0.19 0.051,-0.335 0.141,-0.099 0.239,-0.273 0.141,-0.368 m 3.886,-3.33 c 0,-0.019 -0.091,-0.106 -0.091,-0.106 -0.224,0.106 -0.358,0.153 -0.65,0.153 0,0.188 -0.143,0.433 -0.243,0.433 -0.285,0 -0.243,-0.195 -0.481,-0.195 l 0.434,0.441 c 0.047,0.092 0.047,0.092 0.147,0.092 0.143,-0.092 0.193,-0.144 0.334,-0.144 0,-0.1 0,-0.145 -0.048,-0.29 0.149,-0.099 0.239,0.048 0.332,-0.099 0.133,-0.05 0.266,-0.093 0.266,-0.285 m -4.514,4.371 c 0,-0.145 -0.091,-0.189 -0.183,-0.292 0,0 -0.178,0.246 -0.178,0.341 0,0.195 0,0.289 0.043,0.436 0.135,-0.147 0.318,-0.34 0.318,-0.485 m 1.889,-1.422 c 0,-0.293 -0.049,-0.634 -0.049,-0.968 -0.145,0 -0.145,0.095 -0.145,0.288 -0.047,0.291 -0.146,0.533 -0.241,0.824 -0.096,0.378 -0.339,0.697 -0.532,1.133 -0.047,0.194 -0.294,0.29 -0.486,0.437 0.239,0 0.486,0 0.679,-0.191 0,-0.101 0.048,-0.147 0.192,-0.29 0.341,0 0.242,-0.436 0.533,-0.635 -0.145,-0.122 -0.192,-0.217 -0.291,-0.308 0.146,-0.101 0.291,-0.146 0.34,-0.29 M 7.29,-2.948 C 7.145,-3.099 6.758,-3.142 6.468,-2.896 l 0.383,0.165 c 0.15,-0.12 0.345,-0.165 0.439,-0.217 M 6.226,-1.86 c -0.052,-0.197 -0.243,0 -0.286,0 l -0.435,0 c -0.055,0.095 -0.101,0.145 -0.101,0.239 0.193,0.049 0.339,0.148 0.485,0.049 0.094,-0.143 0.194,-0.288 0.337,-0.288 m 4.215,-3.771 c 0,-0.193 -0.097,-0.339 -0.048,-0.532 -0.097,0.288 -0.291,0.578 -0.388,0.867 0,0.047 -0.05,0.047 0.047,0.095 0.05,0 0.244,0 0.244,-0.048 0.048,-0.094 0.145,-0.239 0.145,-0.382 m 2.426,-1.984 c 0,-0.193 -0.049,-0.246 -0.101,-0.482 -0.332,0.045 -0.332,0.437 -0.376,0.482 -0.228,0.29 -0.55,0.052 -0.79,0.052 -0.094,0.286 0.049,0.286 0.049,0.484 0.143,0 0.292,0.095 0.426,0 0.224,0.095 0.359,-0.151 0.599,-0.151 0.049,-0.095 0.144,-0.333 0.193,-0.385 m 0.968,-1.359 c -0.099,-0.147 -0.099,-0.147 -0.147,-0.281 0,0.232 -0.293,0.378 -0.483,0.769 l 0.19,0.34 c 0.148,-0.096 0.341,-0.245 0.341,-0.48 0,0 -0.048,-0.106 0,-0.205 0,-0.046 0.099,-0.046 0.099,-0.143 m -7.946,8.177 c -0.292,0 -0.439,0.145 -0.581,0.417 0,0.143 -0.047,0.332 0,0.575 C 5.404,0 5.404,-0.093 5.505,-0.195 5.695,-0.093 5.695,-0.332 5.743,-0.38 5.79,-0.507 5.889,-0.652 5.889,-0.797 m 4.116,-3.554 c -0.434,0.241 -0.675,0.677 -1.062,1.116 0.387,0 0.482,-0.388 0.773,-0.439 0.097,-0.096 0.19,-0.145 0.289,-0.289 l 0,-0.388 z m 3.01,-2.728 c -0.341,0 -0.148,0.674 -0.853,0.674 -0.131,0 -0.221,-0.24 -0.413,-0.289 0,0.049 0.043,0.337 0.043,0.337 0,0.099 0.048,0.291 0.239,0.387 0.359,0 0.268,-0.141 0.544,-0.239 0.148,-0.049 0.243,-0.148 0.44,-0.148 l 0,-0.722 z m 1.158,-0.63 c 0,-0.29 0,-0.388 -0.147,-0.632 l -0.29,0.441 c 0.099,0.14 0.099,0.337 0.243,0.575 0.047,0 0.194,-0.335 0.194,-0.384 M 4.892,1.498 C 4.892,1.452 4.793,1.017 4.793,1.017 L 4.408,0.919 4.647,1.959 C 4.751,1.791 4.892,1.598 4.892,1.498 m 8.365,-7.512 c -0.15,0.044 -0.491,0.095 -0.491,0.234 0,0.195 -0.092,0.247 -0.332,0.247 -0.177,0 -0.31,-0.052 -0.594,-0.144 0,0 -0.141,0.189 -0.191,0.381 0.1,0.047 0.475,0.141 0.65,0.141 0.324,0 0.664,0 0.664,-0.141 0,-0.192 0.294,-0.237 0.294,-0.718 m 0.431,1.035 c -0.34,0 -0.673,0.099 -0.725,0.244 -0.096,0.095 0,0.291 -0.24,0.291 -0.1,0 -0.242,-0.149 -0.242,-0.149 -0.091,-0.047 -0.357,0.149 -0.357,0 0,-0.243 -0.183,-0.335 -0.425,-0.335 -0.099,0 -0.193,0 -0.293,0.048 l 0,0.48 c 0.625,0 0.58,0.194 0.851,0.194 0.177,0 0.318,-0.095 0.466,-0.095 0.24,0 0.095,0.095 0.336,0.095 0.241,0 0.336,-0.194 0.484,-0.238 0,-0.149 0.145,-0.339 0.145,-0.535 m -0.145,1.062 c -0.386,0.243 -0.968,0.39 -1.286,0.39 -0.182,0 -0.751,-0.243 -0.947,-0.436 l -0.096,0.436 c 0.292,0.049 0.292,0.292 0.485,0.292 0.141,0 0.332,0.051 0.463,0.051 0.137,0 0.228,0.085 0.272,0.085 0.24,0 0.141,-0.237 0.289,-0.237 0.144,0 0.24,0.101 0.336,0.101 0.241,0 0.435,-0.388 0.484,-0.682 m -1.109,1.066 c -0.272,0 -0.31,0.036 -0.493,0.036 -0.242,0 -0.535,-0.081 -0.68,-0.327 -0.098,0.194 -0.047,0.291 0,0.411 0.145,0.144 0.388,0.34 0.579,0.34 0.322,0 0.594,-0.244 0.594,-0.46 m 0.047,0.7 c -0.319,0.094 -0.495,0.243 -0.782,0.243 -0.099,0 -0.536,-0.149 -0.578,-0.243 -0.148,0.191 0.093,0.579 0.285,0.678 0.194,0.099 0.293,0.048 0.386,0 0,-0.292 0.332,-0.148 0.507,-0.242 0.091,-0.145 0.135,-0.245 0.182,-0.436 m 1.156,5.509 -0.53,0 c -0.092,0.147 -0.24,0 -0.341,0 -0.092,0 -0.143,0 -0.332,0.147 0.289,0 0.433,0.145 0.673,0.241 0.193,-0.143 0.387,-0.194 0.53,-0.388 m 1.454,-1.016 c -0.097,0.199 -0.291,0.289 -0.436,0.289 -0.142,0.198 -0.338,0.441 -0.533,0.441 0.147,0 0.34,0.142 0.579,0.142 C 14.8,2.971 14.994,2.829 15.039,2.631 L 15.091,2.342 Z M 2.463,-9.784 c -0.046,0 0.053,-0.101 -0.429,0.383 -0.101,0 -0.24,-0.289 -0.24,-0.383 0,-0.388 0.091,-0.921 0.24,-1.305 l 0.383,0 c 0,0.43 0.046,0.917 0.046,1.305 m 1.024,-0.05 c 0,0.193 -0.14,0.241 -0.335,0.241 -0.096,0 -0.314,-0.144 -0.314,-0.241 0,-0.195 -0.088,-1.255 -0.088,-1.255 l 0.306,0 c 0.144,0.43 0.431,1.011 0.431,1.255 M 9.813,-9.255 9.33,-9.302 c 0.194,-0.099 0.194,-0.339 0.194,-0.388 0,-0.144 -0.099,-0.29 -0.194,-0.388 -0.096,0.098 -0.096,0.244 -0.196,0.388 -0.095,0 -0.143,-0.24 -0.143,-0.339 0,-0.437 0.192,-0.774 0.339,-1.06 l 0.435,0 c -0.049,0.384 -0.149,0.726 -0.149,1.159 0,0.24 0.149,0.529 0.197,0.675 m 10.392,4.375 c 0,2.1 -0.868,4.228 -2.421,5.752 -0.67,0.677 -1.404,0.999 -1.986,1.669 -0.291,0.288 -0.512,0.573 -0.707,0.964 -0.244,0.241 -0.39,0.385 -0.678,0.531 0.049,-0.146 0.1,-0.29 0.145,-0.433 l -0.045,0 c -0.244,0 -0.487,0.143 -0.678,0.287 l 0.191,0.197 C 13.979,4.175 13.835,4.175 13.736,4.175 12.963,4.304 12.257,3.89 11.506,3.746 l 0,-0.096 c 0.48,-0.145 0.569,-0.725 0.836,-1.019 l 0.281,0 c 0.1,0 0.244,-0.09 0.34,-0.09 0,0.09 -0.096,0.288 -0.096,0.288 0.096,0.096 0.192,0.096 0.29,0 0.238,-0.146 0.579,0.096 0.822,-0.288 -0.291,0 -0.584,0 -0.822,-0.148 0,-0.051 0.143,-0.14 0.1,-0.237 -0.242,0.097 -0.534,0 -0.634,0.186 L 12.575,2.305 c 0.292,-0.346 0.725,-0.612 1.161,-0.756 0.633,-0.097 1.16,0.194 1.771,0.049 2.183,-1.066 3.732,-3.558 3.732,-6.042 0,-3.555 -2.033,-4.957 -3.297,-4.957 -0.245,0 -0.613,0.146 -0.753,0.28 0.14,0.495 0.232,1.069 0.232,1.944 0,2.052 -0.815,4.281 -1.927,5.412 -0.531,0.535 -1.104,0.968 -1.702,0.968 -0.286,0 -0.578,0 -0.774,-0.242 -0.239,-0.191 -0.386,-0.582 -0.334,-0.821 -0.388,-0.291 -1.017,-0.433 -1.501,-0.433 -0.535,0 -1.206,0.191 -1.804,0.672 l 0,0.727 c -0.138,0.05 -0.621,0.34 -0.378,0.562 0.144,-0.048 0.24,-0.138 0.289,-0.175 -0.049,0.312 -0.049,0.702 -0.289,0.994 -0.097,0 -0.243,0 -0.386,0.092 C 6.468,0.725 6.321,0.919 6.321,1.161 6.468,0.919 6.71,1.017 6.851,0.872 6.615,1.452 6.71,1.693 6.275,2.541 6.174,2.971 5.743,3.214 5.45,3.505 5.308,3.603 5.261,3.746 5.082,3.746 4.892,3.794 4.892,4.036 4.892,4.175 4.939,4.175 5.082,4.087 5.18,4.036 4.892,4.691 4.699,5.41 4.069,5.801 l -0.148,-0.098 -0.769,0 C 3.247,5.801 3.438,5.85 3.585,5.945 3.438,6.09 3.347,6.139 3.056,6.139 2.924,6.09 2.75,5.945 2.562,5.945 l -0.046,0 C 2.516,6.09 2.463,6.288 2.75,6.38 2.463,6.429 2.225,6.429 1.885,6.38 1.837,6.139 1.693,5.998 1.693,5.801 1.549,5.703 1.502,5.56 1.354,5.41 1.354,5.703 1.502,5.998 1.549,6.288 1.354,6.235 1.11,6.09 1.014,6.09 0.629,6.288 0.147,6.475 -0.049,6.475 0.241,6.288 0.101,5.945 0.147,5.703 L -0.049,5.801 C -0.097,5.998 -0.34,6.139 -0.384,6.38 -0.679,6.38 -0.872,6.288 -1.112,6.139 l 0,-0.049 c 0.143,0 0.339,-0.145 0.433,-0.289 -0.335,0 -0.579,0.144 -0.917,0.144 0,0 0,0.053 -0.045,0.053 C -1.769,5.945 -1.902,5.801 -1.99,5.703 -2.333,5.41 -2.57,5.171 -2.715,4.743 c 0.095,0 0.239,0 0.29,-0.052 C -2.62,4.647 -2.715,4.404 -2.909,4.354 l 0,-0.704 C -3.055,3.505 -3.244,3.358 -3.345,3.072 -3.588,2.305 -3.631,1.452 -3.631,0.487 -3.68,0.289 -3.778,0.244 -3.877,0.195 l 0,-0.749 c 0,0 0.289,0.27 0.438,0.359 l 0,-0.602 c -0.192,0 -0.339,-0.242 -0.339,-0.391 0,-0.186 0.049,-0.384 0.049,-0.577 0,-0.095 0,-0.095 0.049,-0.195 0,0.1 0.092,0.195 0.241,0.245 0,0 0.094,0.094 0.287,0.094 -0.142,-0.144 -0.193,-0.339 -0.287,-0.53 l -0.149,-0.142 c 0,0 -0.043,-0.098 -0.043,-0.148 0.192,-0.99 0.479,-1.86 0.869,-2.808 -0.39,-0.626 -0.826,-1.83 -1.115,-2.993 -0.243,0.243 -0.579,0.29 -0.871,0.29 -0.272,-0.047 -0.555,-0.145 -0.755,-0.439 -0.289,0.149 -0.675,0.101 -0.862,-0.095 -0.399,-0.345 -0.399,-0.537 -0.399,-0.816 -0.1,-0.099 -0.294,-0.339 -0.294,-0.678 0,-0.436 0.051,-0.725 0.294,-1.109 l 7.247,0 c -0.047,0.141 -0.145,0.331 -0.242,0.43 -0.14,0.296 -0.046,0.679 -0.046,0.969 0.143,0.289 0.288,0.569 0.485,0.813 0.046,0.145 0,0.145 0.046,0.194 l 0.335,0.057 c 0.196,0 0.342,0.14 0.583,0.14 0.15,-0.197 0.15,0.145 0.39,0.244 0.528,0.096 1.022,0 1.313,-0.384 0,-0.057 0.045,-0.057 0.045,-0.106 l -0.24,0 c -0.271,0.106 -0.59,0.246 -0.927,0.106 0,-0.106 -0.05,-0.106 -0.05,-0.251 l 0,-0.244 c 0.195,0 0.341,-0.181 0.529,-0.28 0.091,0.146 0.352,0.28 0.543,0.28 0.24,0 0.579,-0.134 0.579,-0.52 l 0,-0.531 c 0.197,-0.191 0.436,-0.244 0.677,-0.34 -0.095,-0.193 -0.241,-0.193 -0.389,-0.193 l -0.385,0 c -0.048,0.046 -0.144,0.046 -0.144,0.193 -0.147,-0.193 -0.238,-0.388 -0.338,-0.577 l 5.596,0 c -0.092,0.189 -0.195,0.331 -0.241,0.43 -0.098,0.296 -0.098,0.679 -0.098,0.969 l 0.535,0.716 c 0.291,0 0.532,0.097 1.063,0.143 0.1,0.148 0,0.205 0.434,0.205 0.341,0 0.585,-0.057 0.678,-0.106 0.047,-0.099 0.047,-0.099 0,-0.191 -0.093,-0.1 -0.289,0.092 -0.435,0.046 -0.095,-0.097 0.047,-0.146 0.047,-0.244 0.099,-0.083 -0.433,0.098 -0.433,0.098 0,0 -0.097,-0.279 -0.144,-0.378 0,0 0.192,-0.192 0.287,-0.289 0.096,-0.144 -0.143,-0.29 -0.143,-0.436 -0.097,0.048 -0.291,0.196 -0.291,0.146 -0.097,-0.383 0,-0.725 -0.05,-1.109 l 0.532,0 0.048,0.817 c 0.052,0.488 0.629,1.349 0.968,1.349 0.192,0 0.341,-0.1 0.475,-0.198 0.087,-0.181 0.315,-0.28 0.315,-0.375 0,-0.097 -0.133,-0.145 -0.359,-0.145 -0.09,0 -0.09,0.145 -0.239,0.24 L 11.506,-9.69 c 0,0 0.334,-0.29 0.334,-0.482 0,-0.244 -0.048,-0.34 -0.191,-0.487 l -0.29,0.581 c -0.145,0 -0.386,-0.285 -0.386,-0.434 0,-0.193 -0.096,-0.291 -0.096,-0.577 l 2.958,0 c 0.338,0 0.627,0.091 0.965,0.286 l 0.578,0 c 1.19,0 2.117,0.337 2.991,1.21 1.161,1.107 1.836,2.948 1.836,4.713 M 1.644,-11.089 c -0.241,0.43 -0.29,1.109 -0.29,1.255 0,0.241 0,0.579 0.148,0.811 L 0.967,-9.121 C 0.822,-9.302 0.772,-9.401 0.772,-9.496 l 0.242,0.095 c 0.047,0 0.096,-0.095 0.144,-0.192 C 1.11,-9.834 0.822,-9.834 0.726,-9.93 0.58,-10.416 1.014,-10.705 1.061,-11.089"
             style="fill:#ff6200;fill-opacity:1;fill-rule:nonzero;stroke:none"
             id="path698"
             inkscape:connector-curvature="0" /></g><g
           id="g700"
           transform="translate(122.4688,829.0756)"><path
             d="m 0,0 5.951,0.067 c 2.988,0 4.925,-0.756 6.153,-1.961 1.261,-1.243 1.742,-2.894 1.742,-4.548 0,-4.352 -2.747,-6.988 -7.754,-6.988 L 0,-13.432 l 0,0.534 c 1.375,0 1.83,0.635 1.83,2.145 l 0,8.466 C 1.83,-1.034 1.241,-0.51 0,-0.51 L 0,0 Z m 6.394,-0.73 c -0.544,0 -1.242,-0.054 -1.773,-0.167 l 0,-11.026 c 0,-0.782 1.035,-0.725 1.773,-0.725 3.043,0 4.471,2.504 4.471,5.955 0,3.512 -1.674,5.963 -4.471,5.963"
             style="fill:#000066;fill-opacity:1;fill-rule:nonzero;stroke:none"
             id="path702"
             inkscape:connector-curvature="0" /></g><g
           id="g704"
           transform="translate(175.463,819.8392)"><path
             d="m 0,0 c -0.482,-1.747 -1.81,-3.253 -3.614,-3.294 l -1.565,0 c -1.63,0 -2.607,0.156 -2.607,1.613 l 0,4.031 2.165,0 c 1.107,0 1.84,-0.225 1.959,-1.735 l 0.717,0 c -0.112,1.055 -0.112,3.407 0,4.457 l -0.717,0 C -3.777,3.585 -4.529,3.499 -5.677,3.499 l -2.109,0 0,4.729 c 0,0 1.352,0.061 2.85,0.061 1.61,0 3.392,-0.539 3.752,-2.735 l 0.736,0 c -0.106,1.318 -0.165,3.106 -0.165,3.68 l -11.826,0 0,-0.507 c 1.307,0 1.804,-0.339 1.804,-2.361 l 0,-8.089 c 0,-1.446 -0.699,-1.935 -1.799,-1.935 l 0,-0.538 12.071,0 c 0.23,1.062 0.815,3.049 1.082,4.196"
             style="fill:#000066;fill-opacity:1;fill-rule:nonzero;stroke:none"
             id="path706"
             inkscape:connector-curvature="0" /></g><g
           id="g708"
           transform="translate(190.4765,820.387)"><path
             d="m 0,0 c -0.33,-1.814 -1.628,-3.973 -4.96,-3.973 -2.1,0 -4.552,1.997 -4.52,5.983 0.036,3.866 2.316,5.907 4.8,5.907 2.67,0 3.757,-1.791 4.205,-3.538 l 0.715,0 c -0.196,1.28 -0.305,3.109 -0.394,4.597 l -0.575,0 C -0.767,8.522 -0.991,8.092 -1.254,8.096 -2.074,8.102 -2.892,8.95 -4.837,8.95 c -5.38,0 -7.853,-3.195 -7.866,-7.22 -0.012,-3.584 2.629,-6.812 7.435,-6.812 3.568,0 5.63,2.089 6.343,5.082"
             style="fill:#000066;fill-opacity:1;fill-rule:nonzero;stroke:none"
             id="path710"
             inkscape:connector-curvature="0" /></g><g
           id="g712"
           transform="translate(195.9871,815.6648)"><path
             d="m 0,0 0,0.531 c 1.304,0 1.94,0.561 1.94,3.159 l 0,8.744 -1.019,0.02 c -1.692,0 -2.915,-0.96 -3.285,-2.708 l -0.718,0 c 0.29,2.197 0.391,3.688 0.391,3.688 l 12.293,0 c 0,0 0.102,-1.491 0.391,-3.688 l -0.716,0 c -0.375,1.748 -1.708,2.708 -3.401,2.708 l -1.1,-0.02 0,-8.744 C 4.776,1.092 5.42,0.531 6.718,0.531 L 6.718,0"
             style="fill:#000066;fill-opacity:1;fill-rule:nonzero;stroke:none"
             id="path714"
             inkscape:connector-curvature="0" /></g><g
           id="g716"
           transform="translate(138.6171,815.643)"><path
             d="m 0,0 0,0.53 c 1.159,0 1.984,0.094 1.984,1.777 l 0,8.831 c 0,1.743 -0.631,1.784 -1.984,1.784 l 0,0.511 6.806,0 0,-0.511 c -1.393,0 -1.973,-0.041 -1.973,-1.784 l 0,-8.831 C 4.833,0.624 5.561,0.53 6.806,0.53 l 0,-0.53"
             style="fill:#000066;fill-opacity:1;fill-rule:nonzero;stroke:none"
             id="path718"
             inkscape:connector-curvature="0" /></g><g
           id="g720"
           transform="translate(161.5569,816.1798)"><path
             d="m 0,0 0,-0.535 -3.933,0 -4.013,6.08 -1.267,0 0,-3.337 c 0,-1.88 0.658,-2.192 1.984,-2.207 l 0,-0.536 -6.637,0 0,0.535 c 1.714,0 1.811,0.909 1.811,2.151 l 0,8.395 c 0,1.517 -0.385,1.84 -1.815,1.84 l 0,0.51 5.987,0.068 c 3.128,0.053 5.73,-0.756 5.73,-3.603 0,-1.999 -1.421,-3.238 -2.886,-3.532 l 3.42,-4.967 C -1.025,0.224 -0.844,0 0,0 m -4.976,9.156 c 0,2.482 -1.532,2.946 -3.174,2.946 -0.332,0 -0.631,-0.059 -1.063,-0.157 l 0,-5.282 c 0.505,-0.111 0.773,-0.111 1.342,-0.111 1.634,0 2.895,1.024 2.895,2.604"
             style="fill:#000066;fill-opacity:1;fill-rule:nonzero;stroke:none"
             id="path722"
             inkscape:connector-curvature="0" /></g></g></g><g
       id="g784"
       transform="translate(463.748,650.5511)" /></g></svg>