<svg id="Layer_1" xmlns="http://www.w3.org/2000/svg" xmlns:xlink="http://www.w3.org/1999/xlink" viewBox="0 0 420 197.7"><style>.st0{fill:#695e4a}.st1{clip-path:url(#SVGID_2_);fill:url(#SVGID_3_)}.st2{clip-path:url(#SVGID_5_);fill:url(#SVGID_6_)}.st3{clip-path:url(#SVGID_8_);fill:url(#SVGID_9_)}</style><path class="st0" d="M24.2 39.5c-2.1 0-3.8.5-5.3 1.4-1.4 1-2.6 2.2-3.5 3.7-.9 1.5-1.5 3.2-1.9 5-.4 1.8-.5 3.6-.5 5.4 0 1.7.2 3.5.5 5.2.4 1.8 1 3.4 1.8 4.8s1.9 2.6 3.4 3.5c1.4.9 3.1 1.4 5.2 1.4 3.1 0 5.5-.9 7.2-2.6 1.7-1.8 2.8-4.1 3.2-7h12.6c-.9 6.3-3.3 11.1-7.4 14.5-4.1 3.3-9.2 5-15.6 5-3.6 0-6.8-.6-9.8-1.8-3-1.2-5.5-2.9-7.6-5-2.1-2.1-3.7-4.7-4.9-7.7-1-3-1.6-6.3-1.6-9.9 0-3.7.5-7.1 1.6-10.3C2.7 42 4.3 39.3 6.4 37c2.1-2.3 4.6-4.1 7.6-5.4 3-1.3 6.4-1.9 10.3-1.9 2.8 0 5.5.4 8.1 1.1 2.6.7 4.9 1.9 7 3.4 2 1.5 3.7 3.4 5 5.6 1.3 2.2 2 4.9 2.2 8H33.9c-.9-5.6-4.1-8.3-9.7-8.3M63.1 31v8.8h.2c.6-1.5 1.4-2.8 2.5-4.1 1-1.3 2.2-2.3 3.6-3.2 1.4-.9 2.8-1.6 4.3-2.1s3.1-.7 4.8-.7c.9 0 1.8.2 2.9.5v12.2c-.6-.1-1.3-.2-2.2-.3-.9-.1-1.7-.1-2.5-.1-2.4 0-4.4.4-6.1 1.2-1.7.8-3 1.9-4 3.3s-1.7 3-2.2 4.8c-.4 1.8-.6 3.8-.6 6v21.4H50.6V31h12.5zm34.7 36.1c2 1.9 4.8 2.9 8.5 2.9 2.6 0 4.9-.7 6.8-2 1.9-1.3 3.1-2.7 3.5-4.2h11.5c-1.8 5.7-4.7 9.8-8.5 12.2-3.8 2.5-8.4 3.7-13.8 3.7-3.7 0-7.1-.6-10.1-1.8-3-1.2-5.6-2.9-7.6-5.1-2.1-2.2-3.7-4.8-4.8-7.9-1.1-3.1-1.7-6.4-1.7-10.1 0-3.6.6-6.9 1.8-9.9 1.2-3.1 2.8-5.7 5-8 2.1-2.2 4.7-4 7.7-5.3 3-1.3 6.3-1.9 9.9-1.9 4.1 0 7.6.8 10.6 2.3 3 1.6 5.5 3.7 7.4 6.3 1.9 2.6 3.3 5.7 4.2 9 .9 3.4 1.2 6.9.9 10.6H94.6c.2 4.3 1.3 7.3 3.2 9.2m14.8-25c-1.6-1.7-3.9-2.6-7.1-2.6-2.1 0-3.8.4-5.2 1.1-1.4.7-2.5 1.6-3.3 2.6-.8 1-1.4 2.1-1.8 3.3-.3 1.2-.5 2.2-.6 3.1h21.3c-.6-3.3-1.7-5.8-3.3-7.5m56.2 30.4c-1.5 2.6-3.5 4.4-6 5.6-2.5 1.1-5.3 1.7-8.4 1.7-3.6 0-6.7-.7-9.4-2.1-2.7-1.4-4.9-3.3-6.7-5.6-1.8-2.4-3.1-5.1-4-8.1-.9-3.1-1.3-6.3-1.3-9.6 0-3.2.4-6.3 1.3-9.2.9-3 2.2-5.6 4-7.9 1.8-2.3 3.9-4.1 6.6-5.5 2.6-1.4 5.7-2.1 9.2-2.1 2.8 0 5.5.6 8.1 1.8 2.5 1.2 4.6 3 6 5.3h.2v-24h13.1v65.7H169v-6.1h-.2zm-.5-23.6c-.4-1.8-1-3.4-1.9-4.8-.9-1.4-2-2.5-3.5-3.4-1.4-.9-3.2-1.3-5.3-1.3-2.2 0-4 .4-5.4 1.3-1.5.9-2.7 2-3.5 3.4-.9 1.4-1.5 3-1.9 4.8-.4 1.8-.6 3.7-.6 5.7 0 1.8.2 3.7.6 5.5.4 1.8 1.1 3.5 2.1 4.9.9 1.4 2.1 2.6 3.6 3.5 1.4.9 3.2 1.3 5.2 1.3 2.1 0 3.9-.4 5.4-1.3 1.4-.9 2.6-2 3.5-3.5.9-1.4 1.5-3.1 1.8-4.9.4-1.8.5-3.7.5-5.7-.1-1.7-.3-3.6-.6-5.5m19.2-36.1h13.1v10.8h-13.1V12.8zm13.1 65.7h-13.1V31h13.1v47.5zM236.1 31v8.7h-9.6v23.6c0 2.2.4 3.7 1.1 4.4.7.7 2.2 1.1 4.4 1.1.7 0 1.4 0 2.1-.1.7-.1 1.3-.2 1.9-.3v10.1c-1.1.2-2.3.3-3.7.4-1.4.1-2.7.1-4 .1-2 0-3.9-.1-5.7-.4-1.8-.3-3.4-.8-4.8-1.6s-2.5-1.9-3.3-3.4c-.8-1.5-1.2-3.4-1.2-5.8V39.7h-7.9V31h7.9V16.7h13.1V31h9.7zM35.2 152.9v-8.6H35c-1.5 3.2-3.8 5.6-6.7 7.3-2.9 1.7-6.2 2.5-9.7 2.5-3 0-5.6-.4-7.7-1.2-2.1-.8-3.8-2-5.2-3.5-1.3-1.5-2.3-3.4-2.9-5.6-.6-2.2-.9-4.7-.9-7.5v-30.8h5.8v30.9c.1 4.3 1.1 7.6 3 9.8 1.9 2.2 5.1 3.3 9.7 3.3 2.5 0 4.7-.5 6.4-1.6 1.8-1.1 3.3-2.5 4.4-4.3 1.2-1.8 2-3.8 2.6-6.1.6-2.3.8-4.6.8-7v-24.9h5.8v47.5h-5.2zm15.5-47.5v8.2h.2c1.1-2.9 3.1-5.2 5.9-6.9 2.8-1.7 5.9-2.6 9.3-2.6 3.3 0 6.1.4 8.3 1.3 2.2.9 4 2.1 5.4 3.6 1.4 1.6 2.3 3.5 2.8 5.7.6 2.3.8 4.8.8 7.6v30.6h-5.8v-29.6c0-2-.2-3.9-.6-5.7-.4-1.7-1-3.3-1.9-4.6-.9-1.3-2.2-2.3-3.7-3-1.6-.7-3.5-1.1-5.8-1.1s-4.4.4-6.2 1.2c-1.8.8-3.3 2-4.6 3.4-1.3 1.4-2.2 3.2-2.9 5.2-.7 2-1.1 4.2-1.1 6.5v27.7H45v-47.5h5.7zm43.6-9h-5.8v-9.3h5.8v9.3zm0 56.5h-5.8v-47.5h5.8v47.5zm36.3-46.9c2.8 1.3 5.1 3.2 7 5.4 1.9 2.3 3.3 4.9 4.3 8 1 3 1.5 6.3 1.5 9.7 0 3.4-.5 6.7-1.5 9.7-1 3-2.4 5.7-4.3 8s-4.3 4.1-7 5.4c-2.8 1.3-6 2-9.6 2-3.6 0-6.8-.7-9.6-2s-5.1-3.1-7-5.4c-1.9-2.3-3.3-4.9-4.3-8-1-3-1.5-6.3-1.5-9.7 0-3.4.5-6.7 1.5-9.7 1-3 2.4-5.7 4.3-8s4.2-4.1 7-5.4c2.8-1.4 6-2 9.6-2 3.6 0 6.8.7 9.6 2m-16.9 4.6c-2.1 1.2-3.8 2.7-5.2 4.6-1.4 1.9-2.4 4.1-3.1 6.5-.7 2.4-1.1 4.9-1.1 7.4s.3 5 1.1 7.4c.7 2.4 1.8 4.6 3.1 6.5 1.4 1.9 3.1 3.4 5.2 4.6 2.1 1.2 4.5 1.7 7.3 1.7s5.2-.6 7.3-1.7c2.1-1.2 3.8-2.7 5.2-4.6 1.4-1.9 2.4-4.1 3.1-6.5.7-2.4 1.1-4.9 1.1-7.4s-.4-5-1.1-7.4c-.7-2.4-1.7-4.6-3.1-6.5-1.4-1.9-3.1-3.4-5.2-4.6-2.1-1.2-4.5-1.7-7.3-1.7s-5.2.5-7.3 1.7m39.9-5.2v8.2h.2c1.1-2.9 3.1-5.2 5.9-6.9 2.8-1.7 5.9-2.6 9.3-2.6 3.3 0 6.1.4 8.3 1.3 2.2.9 4 2.1 5.4 3.6 1.3 1.6 2.3 3.5 2.9 5.7.5 2.3.8 4.8.8 7.6v30.6h-5.8v-29.6c0-2-.2-3.9-.5-5.7-.4-1.7-1-3.3-1.9-4.6-.9-1.3-2.2-2.3-3.7-3-1.6-.7-3.5-1.1-5.8-1.1s-4.4.4-6.2 1.2c-1.8.8-3.3 2-4.6 3.4-1.3 1.4-2.2 3.2-2.9 5.2-.7 2-1.1 4.2-1.2 6.5v27.7H148v-47.5h5.6zm50.5 35.6c.6 1 1.3 1.8 2.3 2.5.9.6 2 1.1 3.2 1.4 1.2.3 2.4.5 3.7.5.9 0 1.9-.1 2.9-.3 1-.2 1.9-.6 2.8-1 .8-.5 1.5-1.1 2.1-1.8.6-.8.8-1.7.8-2.9 0-2-1.3-3.4-3.9-4.4-2.6-1-6.2-2-10.9-2.9-1.9-.4-3.8-.9-5.6-1.5-1.8-.6-3.4-1.4-4.8-2.3-1.4-1-2.6-2.2-3.4-3.6-.9-1.4-1.3-3.2-1.3-5.3 0-3.1.6-5.6 1.8-7.5 1.2-2 2.8-3.5 4.7-4.6 2-1.1 4.2-1.9 6.6-2.4 2.5-.5 5-.7 7.6-.7 2.6 0 5.1.2 7.5.7 2.4.5 4.6 1.3 6.5 2.5 1.9 1.2 3.5 2.7 4.7 4.6 1.3 1.9 2 4.4 2.3 7.3h-12.4c-.2-2.5-1.1-4.2-2.9-5.1-1.7-.9-3.7-1.3-6.1-1.3-.7 0-1.5 0-2.4.1-.9.1-1.6.3-2.4.6-.7.3-1.3.8-1.8 1.3-.5.6-.7 1.4-.7 2.3 0 1.2.4 2.1 1.3 2.8.9.7 2 1.3 3.4 1.8s3 .9 4.7 1.2l5.4 1.2c1.9.4 3.8 1 5.6 1.6 1.8.6 3.4 1.4 4.8 2.4s2.5 2.3 3.4 3.8c.9 1.5 1.3 3.4 1.3 5.6 0 3.1-.6 5.8-1.9 7.9-1.3 2.1-2.9 3.8-4.9 5.1-2 1.3-4.3 2.2-6.9 2.7-2.6.5-5.3.8-8 .8-2.8 0-5.5-.3-8.1-.8-2.6-.6-5-1.5-7-2.8-2-1.3-3.7-3-5.1-5.1-1.3-2.1-2-4.8-2.2-8h12.4c0 1.4.3 2.6.9 3.6m37.4-28.7c1.3-2 3.1-3.6 5.2-4.9 2.1-1.2 4.4-2.1 7-2.6 2.6-.5 5.2-.8 7.9-.8 2.4 0 4.8.2 7.3.5s4.7 1 6.7 2 3.7 2.3 5 4.1c1.3 1.7 1.9 4.1 1.9 6.9v24.8c0 2.1.1 4.2.4 6.2.2 2 .7 3.4 1.3 4.4H271c-.3-.7-.5-1.5-.6-2.3-.2-.8-.3-1.6-.3-2.4-2.1 2.2-4.5 3.7-7.4 4.5-2.8.9-5.7 1.3-8.7 1.3-2.3 0-4.4-.3-6.4-.8-2-.6-3.7-1.4-5.2-2.6-1.5-1.2-2.6-2.6-3.5-4.4-.8-1.8-1.2-3.9-1.2-6.4 0-2.7.5-4.9 1.4-6.7.9-1.8 2.2-3.1 3.7-4.2 1.5-1 3.2-1.8 5.2-2.3 1.9-.5 3.9-.9 5.8-1.2 2-.3 3.9-.6 5.8-.7 1.9-.2 3.6-.5 5.1-.8 1.5-.4 2.6-.9 3.5-1.6.9-.7 1.3-1.7 1.2-3.1 0-1.4-.2-2.5-.7-3.4-.5-.8-1.1-1.5-1.8-1.9-.8-.5-1.6-.8-2.7-.9-1-.2-2.1-.2-3.3-.2-2.6 0-4.6.6-6.1 1.7s-2.3 2.9-2.6 5.5h-13.1c.3-3.2 1.1-5.7 2.4-7.7m25.9 18.4c-.8.3-1.7.5-2.7.7-1 .2-2 .3-3 .5-1 .1-2.1.3-3.1.5s-1.9.4-2.9.7c-1 .3-1.8.7-2.5 1.2s-1.3 1.2-1.7 2c-.4.8-.6 1.8-.6 3s.2 2.1.6 3c.4.8 1 1.4 1.8 1.9.7.5 1.6.8 2.6 1 1 .2 2 .3 3 .3 2.6 0 4.6-.4 6-1.3 1.4-.9 2.5-1.9 3.1-3.1.7-1.2 1.1-2.4 1.2-3.6.2-1.2.2-2.2.2-2.9v-4.9c-.5.4-1.2.7-2 1"/><defs><path id="SVGID_1_" d="M262 84.8l56.8 13.6L262 0z"/></defs><clipPath id="SVGID_2_"><use xlink:href="#SVGID_1_" overflow="visible"/></clipPath><linearGradient id="SVGID_3_" gradientUnits="userSpaceOnUse" x1="-291.898" y1="350.078" x2="-290.898" y2="350.078" gradientTransform="rotate(-90 5995.252 -63505.59) scale(197.7)"><stop offset="0" stop-color="#F37021"/><stop offset=".269" stop-color="#F15B22"/><stop offset=".549" stop-color="#EF4123"/><stop offset=".818" stop-color="#CC2421"/><stop offset="1" stop-color="#B10F1F"/></linearGradient><path class="st1" d="M262 0h56.8v98.4H262z"/><g><defs><path id="SVGID_4_" d="M353.8 114.6l66.2 83.1V0z"/></defs><clipPath id="SVGID_5_"><use xlink:href="#SVGID_4_" overflow="visible"/></clipPath><linearGradient id="SVGID_6_" gradientUnits="userSpaceOnUse" x1="-291.898" y1="350.078" x2="-290.898" y2="350.078" gradientTransform="rotate(-90 6043.475 -63551.578) scale(197.693)"><stop offset="0" stop-color="#F37021"/><stop offset=".269" stop-color="#F15B22"/><stop offset=".549" stop-color="#EF4123"/><stop offset=".818" stop-color="#CC2421"/><stop offset="1" stop-color="#B10F1F"/></linearGradient><path class="st2" d="M353.8 0H420v197.7h-66.2z"/></g><g><defs><path id="SVGID_7_" d="M262 0l79 136.8L420 0z"/></defs><clipPath id="SVGID_8_"><use xlink:href="#SVGID_7_" overflow="visible"/></clipPath><linearGradient id="SVGID_9_" gradientUnits="userSpaceOnUse" x1="-291.898" y1="350.078" x2="-290.898" y2="350.078" gradientTransform="rotate(-90 5000.041 -52486.557) scale(163.24)"><stop offset="0" stop-color="#FDB913"/><stop offset=".432" stop-color="#FDB713"/><stop offset=".616" stop-color="#FCB015"/><stop offset=".752" stop-color="#FAA317"/><stop offset=".865" stop-color="#F8921B"/><stop offset=".963" stop-color="#F47B1F"/><stop offset="1" stop-color="#F37021"/></linearGradient><path class="st3" d="M262 0h157.9v136.8H262z"/></g></svg>