<svg xmlns="http://www.w3.org/2000/svg" width="109" height="80.6" viewBox="0 0 109 80.6"><path fill="#808286" d="M59.7 70.2c-1.5 0-2.5 1.3-2.5 3.5 0 2.6 1 3.5 2.6 3.5 1.4 0 2.4-1.2 2.4-3.2 0-2.8-.9-3.8-2.5-3.8m-.2 10.4c-4.5 0-6.7-2.5-6.7-6.4V62.4h1.1c2.5 0 3.3.7 3.3 2.9v3.1c.7-1 1.6-1.8 3.4-1.8 3.6 0 6.2 2.5 6.2 6.8 0 4.4-3.1 7.2-7.3 7.2m15.6-5.8h-.9c-1.7 0-2.4.4-2.4 1.3 0 .8.5 1.3 1.8 1.3.8 0 1.5-.4 1.5-1.6v-1zm-2 5.8c-2.5 0-5.6-1.2-5.6-4.2 0-2.9 2.1-4.4 6.9-4.4h.6v-.6c0-1.1-.8-1.3-2.6-1.3-2.5 0-3.4.6-4.3 1.4H68v-1.6c0-1.6 1.7-3.3 5.5-3.3 3.6 0 6 1.8 6 5.7v2c-.1 4.9-1.6 6.3-6.4 6.3m7.5-.4V73c0-3.9 1.9-6.4 6.6-6.4 4.2 0 6.7 2.5 6.7 6.3v4.6c0 1.9-1.1 2.7-3 2.7h-1.5v-7.4c0-1.6-.7-2.5-2-2.5-1.5 0-2.1.8-2.1 2.6v4.6c0 2-.6 2.7-2.6 2.7h-2.1zm19.3-15.1v7.5c1.1-1.6 2.2-3.3 3.5-4.7.6-.6 1-.9 2.4-.9h3.2v.1c-.8.8-3.7 4.2-4.9 5.9.8 1.2 1.6 2.4 2.5 3.5 1 1.1 1.4 1.2 2.4 1.5-.2 1.5-1.2 2.3-2.8 2.3-.7 0-1.8-.3-2.4-.9-1.5-1.7-2.6-3.6-3.9-5.5v6.3h-1.8c-1.7 0-2.8-1.1-2.8-2.7V62.4h1.8c2.1 0 2.8 1.4 2.8 2.7"/><path fill="#E42313" d="M29.3 43.8c-6.2 0-10.6-5.5-10.6-14.6 0-11 4.3-14.6 10.9-14.6 6.1 0 10.1 5 10.1 13.6.1 11.3-3.7 15.6-10.4 15.6M80.6 0C66.7 0 58.6 5.2 55 14 49.9 5.1 40.2 0 28.4 0 9.3 0 0 10.4 0 26.9V80h4.7c10.7 0 14-3.1 14-12.2V51.3c3.1 4.1 6.6 7.6 14.2 7.6 8.2 0 15.2-3.1 19.9-8.8v7.3h8.1c8.5 0 11.2-2.8 11.2-11.4V26.5c0-7.5 2.5-10.9 9-10.9 5.6 0 8.6 3.8 8.6 10.5v31.2h6.5c8.2 0 12.8-3.2 12.8-11.4V26.5C109 10.5 98.3 0 80.6 0"/><path fill="#FFF" d="M52.1 28.1c-.6-.6-1.3-1.2-1.7-1.9-.2-.3-.4-.6-.4-.9-.3-1.4.5-2.8 1.9-3.2 1.5-.3 3.2.7 3.2 2.5 0 1.4-.8 2.3-3 3.5M52 41.9c-2 0-3.5-1.2-3.5-3.5 0-1.3.7-2.5 1.8-3.2l4.8 5.4c-.7.7-1.9 1.3-3.1 1.3m11.6-1.2c1-1.1 1.8-2.3 2-3.9.5-3-1.3-4.2-3.4-4.5l-.7-.1c-.3 1.8-.8 3.2-2 4.3l-.1-.1s-2.3-2.5-3.9-4.3c2.9-1.2 4.9-4 4.9-7.3 0-4.4-3.6-7.9-8.1-7.9s-8.1 3.6-8.1 7.9c0 3.6 2.4 5.7 2.4 5.7-2.7 1.7-4.5 4.7-4.5 8 0 6.1 4 8.9 9.3 8.9 3.3 0 5.8-1 7.5-2.6.5.5 1 .9 1.5 1.3 1.2.9 2.6 1.3 4.3 1.3 3.1 0 4-1.9 4-4.1v-.7c-2.2.2-3.5-.4-5.1-1.9"/></svg>